#!OML:ASF H:\Dans Jumps\Project 1\Capture day 1\Session 1\subject.ASF
:FULLY-SPECIFIED
:DEGREES
180
root 0.21719 16.3048 -13.1182 22.3482 2.36169 -1.41487
lowerback 18.4072 0.330832 -1.8952
upperback 3.99621 0.305558 3.18574
thorax -6.0279 0.195808 4.42794
lowerneck -21.6814 0.259488 -2.00712
upperneck 16.2141 1.37207 -1.84227
head 8.62412 0.31011 -0.116757
rclavicle -2.5842e-015 2.22639e-014
rhumerus -12.1198 -18.0359 -79.2017
rradius 26.3151
rwrist 30.7411
rhand -22.6621 -26.6708
rfingers 7.12502
rthumb 3.7694 -56.6173
lclavicle -2.5842e-015 2.22639e-014
lhumerus -8.16636 9.17292 86.2922
lradius 15.883
lwrist 5.27322
lhand -30.3649 -8.43625
lfingers 7.12502
lthumb -3.66988 21.5119
rfemur -45.3844 -3.08985 21.113
rtibia 55.8286
rfoot -25.5181 -13.8577
rtoes -9.2944
lfemur -45.9437 6.46153 -19.4311
ltibia 55.8571
lfoot -21.642 15.4302
ltoes -16.8189
181
root 0.220619 16.4749 -12.9369 21.6352 2.41406 -1.32223
lowerback 17.5229 0.281791 -1.90599
upperback 4.0461 0.237526 3.11373
thorax -5.49434 0.152223 4.35811
lowerneck -20.9132 0.268133 -2.0083
upperneck 16.9549 1.35934 -1.74578
head 8.74439 0.308203 -0.086052
rclavicle 5.36719e-015 -2.54444e-014
rhumerus -11.2191 -17.5144 -79.8311
rradius 26.4881
rwrist 30.4927
rhand -22.7794 -26.581
rfingers 7.12502
rthumb 3.6561 -56.5294
lclavicle 5.36719e-015 -2.54444e-014
lhumerus -7.38746 7.61216 86.7213
lradius 16.3066
lwrist 6.62775
lhand -30.1844 -8.47355
lfingers 7.12502
lthumb -3.49556 21.4775
rfemur -43.0265 -3.29729 20.9402
rtibia 54.1988
rfoot -24.2415 -13.1182
rtoes -10.5069
lfemur -43.7135 6.52989 -19.2845
ltibia 54.37
lfoot -20.3477 14.2952
ltoes -17.7477
182
root 0.224564 16.6514 -12.7528 20.9725 2.4551 -1.2359
lowerback 16.5105 0.231638 -1.90735
upperback 4.11733 0.170262 3.03479
thorax -4.86877 0.107036 4.27316
lowerneck -20.0584 0.279396 -2.01108
upperneck 17.6304 1.34195 -1.63272
head 8.82555 0.307529 -0.0502455
rclavicle -1.98785e-016 -5.56597e-015
rhumerus -10.3657 -16.9157 -80.4521
rradius 26.6407
rwrist 30.1495
rhand -22.9121 -26.4522
rfingers 7.12502
rthumb 3.52796 -56.4028
lclavicle -1.98785e-016 -5.56597e-015
lhumerus -6.6347 6.11397 87.0972
lradius 16.7325
lwrist 7.9351
lhand -29.8379 -8.32915
lfingers 7.12502
lthumb -3.16096 21.6272
rfemur -40.86 -3.51856 20.7631
rtibia 52.7258
rfoot -22.6825 -12.1719
rtoes -11.5951
lfemur -41.6843 6.6542 -19.1529
ltibia 53.0429
lfoot -18.8183 12.8947
ltoes -18.4292
183
root 0.228974 16.8355 -12.5664 20.34 2.47802 -1.15387
lowerback 15.4142 0.185293 -1.90747
upperback 4.21811 0.10872 2.95051
thorax -4.16661 0.0631219 4.17951
lowerneck -19.1224 0.289292 -2.02502
upperneck 18.2081 1.31644 -1.50201
head 8.85695 0.306197 -0.00792691
rclavicle -2.38542e-015 -1.43125e-014
rhumerus -9.54289 -16.2269 -81.0539
rradius 26.7605
rwrist 29.7904
rhand -23.0308 -26.3235
rfingers 7.12502
rthumb 3.41331 -56.2759
lclavicle -2.38542e-015 -1.43125e-014
lhumerus -5.90153 4.70311 87.4282
lradius 17.1673
lwrist 9.0571
lhand -29.4317 -8.03425
lfingers 7.12502
lthumb -2.76861 21.9275
rfemur -38.7982 -3.76593 20.5813
rtibia 51.214
rfoot -20.6988 -10.9908
rtoes -12.4272
lfemur -39.7543 6.84315 -19.0409
ltibia 51.6549
lfoot -16.8872 11.2296
ltoes -18.907
184
root 0.233997 17.0287 -12.3782 19.7059 2.47242 -1.08452
lowerback 14.2901 0.148421 -1.90756
upperback 4.36016 0.0602027 2.86617
thorax -3.40652 0.0244024 4.0834
lowerneck -18.1347 0.294264 -2.05284
upperneck 18.6836 1.28162 -1.36357
head 8.8423 0.301978 0.0378246
rclavicle 8.15017e-015 3.57812e-015
rhumerus -8.73271 -15.4463 -81.6267
rradius 26.8376
rwrist 29.4947
rhand -23.1216 -26.1914
rfingers 7.12502
rthumb 3.32568 -56.1452
lclavicle 8.15017e-015 3.57812e-015
lhumerus -5.1788 3.40939 87.7249
lradius 17.6026
lwrist 9.87843
lhand -29.0747 -7.68005
lfingers 7.12502
lthumb -2.42387 22.2859
rfemur -36.8896 -4.04017 20.398
rtibia 49.8549
rfoot -18.3827 -9.63272
rtoes -12.933
lfemur -37.9515 7.10784 -18.9367
ltibia 50.3769
lfoot -14.6448 9.40078
ltoes -19.161
185
root 0.239871 17.2313 -12.1889 19.0431 2.4276 -1.03163
lowerback 13.1946 0.126284 -1.90839
upperback 4.54695 0.0313889 2.78312
thorax -2.61613 -0.00526954 3.98717
lowerneck -17.1176 0.291138 -2.0995
upperneck 19.0594 1.23543 -1.219
head 8.78657 0.292962 0.0870657
rclavicle 3.57812e-015 2.38542e-015
rhumerus -7.93247 -14.5937 -82.1615
rradius 26.8711
rwrist 29.3125
rhand -23.1485 -26.0722
rfingers 7.12502
rthumb 3.29972 -56.0264
lclavicle 3.57812e-015 2.38542e-015
lhumerus -4.47622 2.23567 87.9977
lradius 18.0408
lwrist 10.375
lhand -28.8567 -7.37544
lfingers 7.12502
lthumb -2.21335 22.5928
rfemur -35.0972 -4.33355 20.2079
rtibia 48.6196
rfoot -15.7154 -8.15867
rtoes -13.0238
lfemur -36.2225 7.42971 -18.8259
ltibia 49.16
lfoot -12.0357 7.50977
ltoes -19.2657
186
root 0.246458 17.4427 -11.9994 18.3379 2.34897 -0.995714
lowerback 12.1746 0.118915 -1.9066
upperback 4.77292 0.022634 2.70155
thorax -1.82677 -0.0249992 3.89049
lowerneck -16.0962 0.2771 -2.16246
upperneck 19.3589 1.17557 -1.07395
head 8.70278 0.276971 0.137324
rclavicle 9.93923e-016 -3.10104e-014
rhumerus -7.15208 -13.6899 -82.6539
rradius 26.8709
rwrist 29.2322
rhand -23.1341 -25.9541
rfingers 7.12502
rthumb 3.31358 -55.9081
lclavicle 9.93923e-016 -3.10104e-014
lhumerus -3.81125 1.15243 88.2518
lradius 18.5087
lwrist 10.654
lhand -28.8015 -7.1408
lfingers 7.12502
lthumb -2.15995 22.828
rfemur -33.3941 -4.62709 20.0039
rtibia 47.4765
rfoot -12.6796 -6.67336
rtoes -12.6665
lfemur -34.5325 7.76973 -18.6905
ltibia 47.9625
lfoot -9.02355 5.6526
ltoes -19.2613
187
root 0.253784 17.6612 -11.8109 17.584 2.23594 -0.978933
lowerback 11.2618 0.128497 -1.89481
upperback 5.02934 0.037298 2.6192
thorax -1.06521 -0.0323789 3.7874
lowerneck -15.0994 0.252743 -2.23418
upperneck 19.6172 1.10248 -0.929267
head 8.60863 0.253953 0.187379
rclavicle 9.34288e-015 5.1684e-015
rhumerus -6.41618 -12.7518 -83.1037
rradius 26.8735
rwrist 29.1897
rhand -23.0761 -25.8673
rfingers 7.12502
rthumb 3.36956 -55.8204
lclavicle 9.34288e-015 5.1684e-015
lhumerus -3.20727 0.112122 88.489
lradius 19.0257
lwrist 10.8945
lhand -28.9493 -7.11844
lfingers 7.12502
lthumb -2.30273 22.8489
rfemur -31.7648 -4.88491 19.7804
rtibia 46.4037
rfoot -9.25876 -5.3169
rtoes -11.8772
lfemur -32.8569 8.07029 -18.5113
ltibia 46.7605
lfoot -5.59449 3.93947
ltoes -19.1342
188
root 0.261628 17.8841 -11.6246 16.7956 2.09958 -0.981116
lowerback 10.4687 0.153133 -1.86328
upperback 5.29617 0.0735323 2.53328
thorax -0.358942 -0.0272845 3.67033
lowerneck -14.1563 0.219704 -2.30123
upperneck 19.8822 1.01729 -0.786534
head 8.52608 0.224502 0.234918
rclavicle 1.39149e-015 -2.78299e-015
rhumerus -5.74179 -11.8391 -83.514
rradius 26.8831
rwrist 29.1377
rhand -22.9976 -25.7872
rfingers 7.12502
rthumb 3.44546 -55.7391
lclavicle 1.39149e-015 -2.78299e-015
lhumerus -2.68847 -0.91856 88.7083
lradius 19.6184
lwrist 11.296
lhand -29.2261 -7.31532
lfingers 7.12502
lthumb -2.57004 22.6489
rfemur -30.2216 -5.07091 19.5389
rtibia 45.3947
rfoot -5.4671 -4.23442
rtoes -10.6748
lfemur -31.2076 8.26765 -18.277
ltibia 45.5544
lfoot -1.77083 2.46287
ltoes -18.7591
189
root 0.269732 18.1092 -11.4413 15.9891 1.95257 -0.996599
lowerback 9.7924 0.188334 -1.80931
upperback 5.55943 0.125256 2.44185
thorax 0.27966 -0.0120826 3.53645
lowerneck -13.2801 0.182208 -2.35402
upperneck 20.1724 0.924892 -0.64718
head 8.46393 0.191299 0.278631
rclavicle 9.74045e-015 5.1684e-015
rhumerus -5.15031 -10.974 -83.8894
rradius 26.932
rwrist 29.0255
rhand -22.8991 -25.7415
rfingers 7.12502
rthumb 3.54055 -55.6918
lclavicle 9.74045e-015 5.1684e-015
lhumerus -2.26359 -1.95819 88.9085
lradius 20.3041
lwrist 12.0057
lhand -29.5686 -7.72465
lfingers 7.12502
lthumb -2.9008 22.2354
rfemur -28.782 -5.1518 19.2813
rtibia 44.4573
rfoot -1.37852 -3.51965
rtoes -9.00077
lfemur -29.6066 8.29898 -17.9898
ltibia 44.3611
lfoot 2.38262 1.3031
ltoes -18.0728
190
root 0.277905 18.3335 -11.2616 15.1858 1.7961 -1.02718
lowerback 9.22102 0.228143 -1.73347
upperback 5.80905 0.184261 2.34755
thorax 0.847322 0.00940456 3.38934
lowerneck -12.4877 0.146528 -2.3969
upperneck 20.4949 0.835069 -0.507869
head 8.42776 0.158941 0.321547
rclavicle 2.78299e-015 4.37326e-015
rhumerus -4.62955 -10.1892 -84.2421
rradius 27.0144
rwrist 28.8584
rhand -22.8037 -25.7054
rfingers 7.12502
rthumb 3.63263 -55.6542
lclavicle 2.78299e-015 4.37326e-015
lhumerus -1.92269 -2.97521 89.0857
lradius 21.0719
lwrist 13.0437
lhand -29.8953 -8.27515
lfingers 7.12502
lthumb -3.2163 21.6803
rfemur -27.4791 -5.10364 19.0233
rtibia 43.6137
rfoot 2.90881 -3.20684
rtoes -6.58059
lfemur -28.093 8.14414 -17.658
ltibia 43.2155
lfoot 6.78037 0.493537
ltoes -16.8481
